<?xml version="1.0" encoding="utf-8"?>
<!-- Generator: Adobe Illustrator 21.1.0, SVG Export Plug-In . SVG Version: 6.00 Build 0)  -->
<svg version="1.1" id="Layer_1" xmlns="http://www.w3.org/2000/svg" xmlns:xlink="http://www.w3.org/1999/xlink" x="0px" y="0px"
	 viewBox="0 0 517.6 490.3" style="enable-background:new 0 0 517.6 490.3;" xml:space="preserve">
<style type="text/css">
	.st0{fill:#D8D1B6;}
	.st1{fill:url(#SVGID_1_);}
	.st2{fill:#F23D3D;}
	.st3{fill:#9D5FFF;}
	.st4{fill:#61F4FF;}
	.st5{fill:#FFFFFF;}
	.st6{fill:#FF952C;}
	.st7{fill:#434849;}
	.st8{fill:#FF6262;}
	.st9{fill:#FFAD9E;}
	.st10{fill:#CC3636;}
	.st11{fill:#751A1A;}
	.st12{fill:#38454C;}
	.st13{fill:#FFC61B;}
	.st14{fill:#D48B07;}
	.st15{fill:#A5550E;}
	.st16{fill:#B8C443;}
	.st17{fill:#D0E557;}
	.st18{fill:#50930F;}
	.st19{opacity:0.6;fill:#50930F;enable-background:new    ;}
	.st20{fill:#0E4F3E;}
	.st21{fill:#FF5757;}
	.st22{fill:#1E1E1E;}
	.st23{fill:#EEEBDD;}
</style>
<path class="st0" d="M354,490.3c-4-3.3-27.7-23-31-31.8c-5.1-13.4-4-30.3-4.4-44.2H199c-0.3,13.9,0.7,30.8-4.4,44.2
	c-3.3,8.8-27,28.5-31,31.8"/>
<linearGradient id="SVGID_1_" gradientUnits="userSpaceOnUse" x1="258.9" y1="481.3" x2="258.9" y2="192.8" gradientTransform="matrix(1 0 0 -1 0 538)">
	<stop  offset="0" style="stop-color:#1FA6E4"/>
	<stop  offset="1" style="stop-color:#1FBCE4"/>
</linearGradient>
<path class="st1" d="M11.4,56.7h495v288.5h-495L11.4,56.7z"/>
<path class="st2" d="M463,74c0-5.7,45.4,18.9,45.2,46l-0.2,22.4c-0.2,21.4-32.6,38.7-45.8,38.6c-13.7-0.1-45.4-17.8-45.2-39.2
	l0.2-22.4C417.2,93,452.3,73.9,463,74C463.3,74,462.9,87.5,463,74z M508.2,119.7l-90.7-0.7l0.4-59l90.7,0.7L508.2,119.7L508.2,119.7
	z"/>
<path class="st3" d="M463.8,171.3c0,0-0.7,27.9-30,21.4c0,0,25-9.7,26.2-33.2L463.8,171.3z"/>
<path class="st4" d="M471.9,171.4c0,0,3.3,20.4-19.8,27.8c0,0,6.7-16.1,7.9-39.6L471.9,171.4z"/>
<ellipse transform="matrix(7.277955e-03 -1 1 7.277955e-03 355.6171 616.0693)" class="st5" cx="488.1" cy="128.9" rx="16.7" ry="14.2"/>
<ellipse transform="matrix(7.299806e-03 -1 1 7.299806e-03 303.8584 565.3652)" class="st5" cx="436.7" cy="129.6" rx="16.7" ry="14.2"/>
<path class="st6" d="M481.8,111.7c-0.1,12.3-8.7,18.7-19.5,18.7c-10.8-0.1-19.3-6.4-19.2-18.9c0.1-12.5,19.7-46.8,19.7-46.8
	S481.9,99.2,481.8,111.7z"/>
<path class="st7" d="M442.6,126.8c-0.8,2.3-3.9,3.9-6.1,3.3s-3.9-2.9-3.6-5c0-3.1-4.4-3.4-4.6-0.6c-0.5,4.7,3.1,9.4,7.8,10
	c4.7,0.6,7.6-3.1,8.1-7.5C443.8,126.3,442.6,126,442.6,126.8L442.6,126.8z M482.5,125.3c0.2,2.4,3.1,4.2,5.3,4.2
	c2.2-0.2,3.9-2.1,4.2-4.1c0.3-2.9,4.4-2.6,4.4,0.3c-0.3,4.4-4.2,8.3-8.6,8.3c-4.4-0.3-6.8-4-6.5-8.1
	C481.3,124.5,482.2,124.5,482.5,125.3z"/>
<path class="st8" d="M96.8,307.1c10.2-4.7,22.5-0.4,27.4,9.7s-3.4,40.9-3.4,40.9s-29-13-33.7-23.2C82.1,324.2,86.4,311.9,96.8,307.1
	z M60.6,260.7c7-8.8,5.8-21.7-2.8-28.9s-40.5-6.6-40.5-6.6s5.6,31.3,14.4,38.3C40.4,270.5,53.3,269.6,60.6,260.7z"/>
<ellipse transform="matrix(0.788 -0.6156 0.6156 0.788 -171.7396 99.7645)" class="st9" cx="59" cy="299.3" rx="48.9" ry="57.5"/>
<ellipse transform="matrix(0.788 -0.6156 0.6156 0.788 -185.6655 90.7149)" class="st8" cx="38.9" cy="315" rx="13.8" ry="22.9"/>
<ellipse transform="matrix(0.788 -0.6156 0.6156 0.788 -181.9003 84.8826)" class="st10" cx="32.3" cy="306.6" rx="3.4" ry="3.4"/>
<ellipse transform="matrix(0.788 -0.6156 0.6156 0.788 -189.4853 96.5116)" class="st10" cx="45.4" cy="323.4" rx="3.4" ry="3.4"/>
<path class="st11" d="M67.5,316.1c2.7-1.1,6.7,1,8.1,3.6s0.4,6-1.7,7.6c-2.9,2.2,0.1,6.9,3.3,5c4.8-3.1,6.3-10.2,3-15.2
	s-9-5.2-13.4-2.4C65.9,315,66.7,316.4,67.5,316.1z M42.7,286.5c1.9-2.2,1.5-6.1-0.4-8.6c-2-2.1-5.1-2.3-7.3-0.9
	c-2.8,1.9-6-2.6-3.2-4.5c4.5-3.2,11.2-2.1,14.5,2.5c3.3,4.7,1.6,9.7-2.5,12.9C43.2,288.4,42.3,287.2,42.7,286.5z"/>
<path class="st8" d="M58.5,104.3c5.8,1.4,8.5,10.7,6.1,21.3c-1.5,7.1-9.5,18.9-14.1,25.5c-1.9,2.6-4.1,2-4.8-1
	c-1.4-8-3.6-21.9-1.9-29.1C46.2,110.5,52.9,103.1,58.5,104.3z"/>
<path class="st5" d="M57.1,102.5c0.5,0,1.2,0,1.7,0.2c3.4,0.7,6,3.7,7.3,8.3c1.2,4.3,1.2,9.5,0,14.8c-1.5,7.1-8.6,18.2-14.4,26.2
	c-1,1.9-2.7,2.7-4.4,2.4c-1.7-0.3-2.7-1.9-3.2-3.9c-1.7-9.7-3.6-22.6-1.9-29.8C44.7,110,51,102.5,57.1,102.5z M58.2,106
	c-4.8-1-10.5,6-12.6,15.3c-1.5,7,0.5,20.8,1.9,28.4c0.2,1,0.5,1.4,0.7,1.4c0,0,0.5-0.2,1-0.9c4.6-6.3,12.3-18,14-24.8
	c1-4.8,1-9.5,0-13.3C62.1,108.6,60.4,106.6,58.2,106z"/>
<path class="st8" d="M84.5,104.3c-5.8,1.4-8.5,10.7-6.1,21.3c1.5,7.1,9.5,18.9,14.1,25.5c1.9,2.6,4.1,2,4.8-1
	c1.4-8,3.6-21.9,1.9-29.1C96.8,110.5,90.3,103.1,84.5,104.3z"/>
<path class="st5" d="M85.9,102.5c6.3,0,12.6,7.5,15,18c1.5,7.1-0.2,20.1-1.9,29.8c-0.3,2.2-1.5,3.6-3.2,3.9
	c-1.7,0.3-3.2-0.5-4.6-2.2c-5.8-8-12.8-19.1-14.5-26.2c-1.2-5.3-1.2-10.5,0-14.8c1.4-4.6,3.9-7.7,7.3-8.3
	C84.7,102.6,85.2,102.5,85.9,102.5z M94.9,151c0,0,0.5-0.3,0.7-1.4c1.4-7.7,3.4-21.4,1.9-28.4c-2-9.4-7.8-16.3-12.6-15.3
	c-2.2,0.5-3.9,2.6-4.9,6c-1,3.7-1,8.5,0,13.3c1.5,7,9.4,18.5,14,24.8C94.4,151,94.9,151,94.9,151z M37.4,93.1
	c0-16.2,15.5-29.3,34.5-29.3s34.5,13.1,34.5,29.3S91,116.9,71.9,116.9S37.4,109.3,37.4,93.1z"/>
<path class="st8" d="M68.7,80.5H75c0.9,0,1.7-0.7,1.7-1.7c0-0.9-0.7-1.7-1.7-1.7h-1.5V70c0-0.9-0.7-1.7-1.7-1.7
	c-0.9,0-1.7,0.7-1.7,1.7v7.1h-1.5c-0.9,0-1.7,0.7-1.7,1.7C67.2,79.8,67.9,80.5,68.7,80.5L68.7,80.5z"/>
<path class="st12" d="M60.2,91.9c-0.5,1.5-2.6,2.6-4.3,2.2c-1.5-0.3-2.6-1.7-2.6-3.2c0-1.9-2.9-2.2-3.1-0.3c-0.3,3.1,2.2,6,5.4,6.3
	s5.1-2,5.4-4.8C61.2,91.7,60.4,91.6,60.2,91.9z M83.5,91.2c0.2,1.5,2.2,2.7,3.7,2.6c1.5-0.2,2.7-1.4,2.9-2.7
	c0.2-1.9,3.1-1.7,3.1,0.2c-0.2,2.9-2.7,5.4-5.8,5.3c-3.1-0.2-4.6-2.6-4.6-5.3C82.7,90.9,83.5,90.9,83.5,91.2z"/>
<path class="st13" d="M423.9,314.9c-0.3-8.9-8.1-14.7-17.4-13.4c-6.4,1-17.8,10.4-23.9,16c-2.5,2.1-2.4,5.9,0.3,7.1
	c6.6,3.8,28.4,19.9,34.8,18.9C426.8,342.1,424.3,323.7,423.9,314.9z M473.6,266.1c-8.9-0.4-14.6-8.4-13-17.6
	c1.1-6.4,10.7-17.6,16.5-23.6c2.2-2.5,5.9-2.3,7.1,0.4c3.7,6.6,19.4,28.8,18.2,35.2C500.8,269.6,482.4,266.7,473.6,266.1
	L473.6,266.1z"/>
<path class="st13" d="M505.5,260.4c20.3,20.7,9.5,49-14.8,72.9s-52.8,34.1-73.2,13.4c-20.3-20.7-17.1-56.8,7.2-80.7
	C449,242.1,485.3,239.8,505.5,260.4L505.5,260.4z"/>
<path class="st14" d="M454.8,271.1l-4.1-21.5c-3.8,1.2-7.4,3-10.8,4.9l10.5,18C452.1,274.8,455.3,273.8,454.8,271.1z M428.9,296.6
	c2.7,0.6,3.6-2.8,1.5-4.3l-17.8-10.9c-2,3.4-3.6,7.1-4.7,10.7 M449.9,288l-19-27.3c-2.2,1.8-4.3,3.5-6.3,5.5c-2.2,2.1-4,4.2-6,6.6
	l27,19.5C448.7,294.1,452,290.9,449.9,288z"/>
<path class="st5" d="M466.1,308.2c-10.6,10.4-11.9,26.5-2.8,35.7c2.1,2.2,4.6,3.6,7.3,4.9c7.7-3.3,14.7-8.1,21.2-14.4
	c6.5-6.4,11.4-13.6,14.8-20.9c-0.9-2.7-2.6-5.2-4.8-7.4C493,296.7,476.9,297.6,466.1,308.2L466.1,308.2z"/>
<path class="st14" d="M510.1,267.2c-1.2-2-2.5-3.6-3.9-5.4l-11.4,14.4L510.1,267.2z M424.1,351.6l9.3-15.1l-14.6,11.1
	C420.3,349.2,421.9,350.5,424.1,351.6L424.1,351.6z"/>
<path class="st15" d="M472,287.2c-1.4-2.9,0.2-7.3,2.9-9.3c2.5-1.8,6.3-1.2,8.4,1c2.8,2.9,7.5-1,4.9-4.1c-3.9-4.7-11.7-5.5-16.6-1.4
	c-5,4.2-4.6,10.1-1.2,14.6C471.3,289,472.5,288.1,472,287.2L472,287.2z M446.4,313.7c-2.5-1.8-7.1-0.8-9.5,1.5c-2,2.3-2,5.9-0.3,8.4
	c2.3,3.1-2.2,7.1-4.7,4.2c-4.1-4.5-3.6-12.4,1.1-16.6c4.9-4.4,10.7-3.1,14.6,1.2C448.4,313.2,447.3,314.3,446.4,313.7z M476.3,319
	l-23.7,2.1l26.3-25.8L476.3,319z"/>
<path class="st16" d="M211.8,336.5c11.3,1.4,23,2.2,34.7,2.1c11.7-0.1,23.5-1.2,34.7-2.8l-1.5-157.4l-69.4,0.6
	C210.3,179.1,211.8,336.5,211.8,336.5L211.8,336.5z"/>
<path class="st17" d="M162.2,153.2c-0.6-60.1,60.6-56.8,82.1-57s82.6-4.7,83.1,55.5c0.3,27.4-37.7,96.7-81.7,97.1
	C209,248.6,162.4,180.5,162.2,153.2z"/>
<ellipse transform="matrix(1 -9.199611e-03 9.199611e-03 1 -1.9196 2.1349)" class="st18" cx="231.1" cy="209.7" rx="2.4" ry="2.4"/>
<ellipse transform="matrix(1 -9.199611e-03 9.199611e-03 1 -1.9165 2.3962)" class="st18" cx="259.5" cy="209.5" rx="2.4" ry="2.4"/>
<path class="st19" d="M273.1,96.9l-8.5,33.3c-0.9,3.4,3.5,5.3,5.4,2.4l22.2-32C286.3,98.7,279.5,97.3,273.1,96.9z"/>
<path class="st19" d="M219.2,133.1c2,2.9,6.4,0.9,5.4-2.5l-9.1-33.2c-6.3,1-13.2,2.1-19.5,4.6L219.2,133.1L219.2,133.1z M244.3,96.2
	c-3.4,0-7.8,0.1-12.7,0.1l9.2,47.8c1,4.4,7.4,4.3,8.3-0.1l8.4-48C252.1,96.1,247.7,96.1,244.3,96.2z"/>
<path class="st20" d="M271.9,175.1c0.9-3.9,6.8-6.9,11.2-6c3.9,0.9,6.9,4.8,6.9,8.7c0,5.4,7.9,5.8,8.3,0.4c0.9-8.3-6-16.1-14.8-17
	s-14.1,5.5-14.5,13.3C269.5,176.1,271.9,176.6,271.9,175.1z M216.7,177.6c-0.5-3.9-5.9-7.3-9.8-6.8s-7.3,4-7.8,7.4
	c-0.4,4.9-8.3,5-8.3-0.4c0.4-7.8,7.7-14.7,15.5-14.3c8.3,0.4,12.8,6.7,12.4,14.1C219.1,178.5,216.7,179.1,216.7,177.6L216.7,177.6z"
	/>
<path class="st21" d="M258,313.1l-11.9-12.6l-11.6,12.8l-0.7-77.2l10.8,4.8l12.7-5L258,313.1L258,313.1z"/>
<path class="st22" d="M500.6,46H17.5C8,46,0,53.2,0,62.8v295.5h517.6V62.8C517.6,53.2,510.2,46,500.6,46L500.6,46z M258.7,56.7
	c1.2,0,2.2,1,2.2,2.2c0,1.2-1,2.2-2.2,2.2s-2.2-1-2.2-2.2C256.5,57.7,257.5,56.7,258.7,56.7z M492.5,333.9H23.8V71.1h468.8
	L492.5,333.9L492.5,333.9z"/>
<path class="st23" d="M0,398.1c0,9.6,8,17.6,17.5,17.6h483.1c9.6,0,17-8,17-17.6v-39.8H0V398.1z"/>
</svg>
