<svg id="Capa_1" xmlns="http://www.w3.org/2000/svg" xmlns:xlink="http://www.w3.org/1999/xlink" viewBox="0 0 373 344">
  <style>
    .st0{fill:#584AFA;} .st1{clip-path:url(#SVGID_2_);} .st2{fill:#2560B7;} .st3{fill:#BC5824;} .st4{fill:#924BF9;} .st5{fill:#794DE2;enable-background:new ;} .st6{fill:#7A2D1F;} .st7{opacity:0.3;fill:#FC4C4C;enable-background:new ;} .st8{opacity:0.1;enable-background:new ;} .st9{fill:#FFC692;} .st10{clip-path:url(#SVGID_4_);} .st11{fill:url(#SVGID_5_);} .st12{opacity:0.21;} .st13{fill:#E84F4F;} .st14{fill:#FF7300;} .st15{fill:#222166;} .st16{fill:#1F1E21;} .st17{fill:#E54242;} .st18{fill:#353339;} .st19{fill:#4E4D51;} .st20{fill:#FFFFFF;} .st21{fill:#1FA6E4;} .st22{fill:#E54545;} .st23{fill:#FCB07C;}
  </style>
  <path class="st0" d="M368.2 124.3c0-58.4-43.8-105.8-97.9-105.8-35.3 0-66.1 20.1-83.4 50.3-17.3-29.9-48-49.7-83-49.7C49.8 19.1 6 66.5 6 124.9c0 185.6 181.1 212.2 181.1 212.2s181.1-26.6 181.1-212.2v-.6z"/>
  <defs>
    <path id="SVGID_1_" d="M368.2 124.9c0-58.3-43.7-105.5-97.6-105.5-35.2 0-66 20.1-83.2 50.2C170.2 39.8 139.5 20 104.6 20 50.7 20 7 67.2 7 125.5c0 185.1 180.6 211.6 180.6 211.6s180.6-26.5 180.6-211.6v-.6z"/>
  </defs>
  <clipPath id="SVGID_2_">
    <use xlink:href="#SVGID_1_" overflow="visible"/>
  </clipPath>
  <g class="st1">
    <path class="st2" d="M138.3 286l-18.9 72.4s65.3-7.4 88-14c-.2-4.3-2-51.1-2-51.1l-67.1-7.3z"/>
    <path class="st3" d="M106.8 165.9l.6-26.4 105.9 16.7s-7.7 31.8-8.3 46.2c-.4 11.8 4.4 12.7 4.4 12.7-17.4 42.1-103.3 25.7-120.2-10.9 0 0 9.6-5.9 13.6-12.8 4.1-6.9 4-25.5 4-25.5z"/>
    <path class="st4" d="M120.8 229.8l.7-7.2 27.3-11s9.9-4 22.7-4.7c12.8-.6 28.9 1.6 30.5 2.9 1.6 1.3 9.5 7.6 10.4 12.1s3.9 30.6 2.3 30.9c-1.6.3-8.6 22-8.6 22s-11 13.8-22.4 16.2c-11.4 2.4-11.1 6.6-21.4 4.4-10.2-2.2-22.6-9-23.7-9.5-1.2-.4-17.8-56.1-17.8-56.1z"/>
    <path class="st5" d="M168.7 257.3l-34.5 44.4-6.7 25.5s25.1 11.2 34.5 11 22.8 4.7 22.8 4.7 6.4-6.4 9.6 3.9c4.7-.5 9-1.2 12.3-2.2-.2-4.3-1.6-51.1-1.6-51.1l12.8-71.9c-7.8-17.8-28.8-12-37.2 12.2-2.8 8.3-6.9 16.2-12 23.5z"/>
    <path class="st6" d="M133.6 181.5c2.7.3 5.3-.6 7.8-2.8.4-.4.5-1.1.1-1.5s-1.1-.5-1.5-.1c-2 1.8-4.1 2.6-6.2 2.3-3.5-.4-5.9-3.7-6-3.7-.3-.5-1-.6-1.5-.2-.5.3-.6 1-.2 1.5.2.1 3.1 4 7.5 4.5zm39.5 1.2c2.7.3 5.3-.6 7.8-2.8.4-.4.5-1.1.1-1.5s-1.1-.5-1.5-.1c-2 1.8-4.1 2.6-6.2 2.3-3.5-.4-5.9-3.7-6-3.7-.3-.5-1-.6-1.5-.2-.5.3-.6 1-.2 1.5.1.1 3 4 7.5 4.5z"/>
    <ellipse transform="rotate(-83.38 127.17 185.84)" class="st7" cx="127.2" cy="185.8" rx="4.5" ry="8.1"/>
    <ellipse transform="rotate(-83.38 184.96 186.428)" class="st7" cx="185" cy="186.4" rx="4.5" ry="8.1"/>
    <ellipse class="st8" cx="158.1" cy="225.8" rx="11.7" ry="8.2"/>
    <path class="st9" d="M158.8 226.9h-1.9c-3 0-5.5-2.5-5.5-5.5v-23.1c0-3 2.5-5.5 5.5-5.5h1.9c3 0 5.5 2.5 5.5 5.5v23.1c0 3.1-2.4 5.5-5.5 5.5z"/>
    <path class="st9" d="M217.2 152.9c-4.2 27-33.9 60.2-65.5 55.3-34.2-5.3-46.3-42.3-42.1-69.4s23.8-18.2 56.6-13.1 55.2.1 51 27.2z"/>
    <defs>
      <path id="SVGID_3_" d="M217.5 152.9c-4.2 27-33.5 60.2-65.5 55.3-35.6-5.5-46.3-42.3-42.1-69.4 4.2-27 23.8-18.2 56.6-13.1 32.7 5.1 55.2.2 51 27.2z"/>
    </defs>
    <clipPath id="SVGID_4_">
      <use xlink:href="#SVGID_3_" overflow="visible"/>
    </clipPath>
    <g class="st10">
      <linearGradient id="SVGID_5_" gradientUnits="userSpaceOnUse" x1="137.4847" y1="297.2333" x2="205.7395" y2="228.9785" gradientTransform="rotate(8.836 -2588.91 -184.633)">
        <stop offset=".00493116" stop-color="#FFE8D1"/>
        <stop offset="1" stop-color="#FC9"/>
      </linearGradient>
      <path class="st11" d="M202.6 169.9c-3.7 23.9-29.9 39.7-58.4 35.2s-48.7-27.4-45-51.3 29.9-39.7 58.4-35.2 48.7 27.4 45 51.3z"/>
    </g>
    <ellipse transform="rotate(-81.164 120.143 171.838)" class="st12 st13" cx="120.1" cy="171.8" rx="4" ry="5"/>
    <path class="st14" d="M174.3 75.3c63.6 11.6 52.8 65.2 50 83.3-.4 2.9-6.6 20.8-6.6 18.3 0-.8-.2-1.6-.6-2.4-.3-.5-.6-1.1-1.1-1.6-5.4-6.3-22.8-9.9-24.8-14.9-5.7-14.2 17.6-29.6 3.1-19.1-12.3 8.9-73.7 12.3-88.9 9.9-1-.2-5.1-39.4 13.3-57.2.1 0 21.3-22.6 55.6-16.3z"/>
    <ellipse transform="rotate(-81.164 197.534 181.765)" class="st12 st13" cx="197.5" cy="181.8" rx="4" ry="5"/>
    <path class="st15" d="M123.2 165.9s.1-.5.3-1.2c.1-.4.2-.8.4-1.3s.5-1.1.8-1.7c.4-.6.8-1.2 1.3-1.9.6-.6 1.2-1.3 2-1.8.7-.6 1.7-1 2.7-1.3.5-.1 1.1-.3 1.6-.3.6 0 1.1 0 1.7.1.5.1 1.1.3 1.6.4.5.2 1 .5 1.5.8.9.6 1.6 1.3 2.2 2 .1.2.3.4.4.5l.3.6c.2.4.4.8.6 1.1.3.8.6 1.5.7 2.2.1.7.2 1.3.3 1.9.1.5 0 1 .1 1.4 0 .8-.1 1.2-.1 1.2s-.3-.4-.7-1c-.2-.3-.4-.7-.7-1.2-.3-.4-.6-.9-1-1.4l-1.2-1.5-.7-.7-.3-.4-.4-.3c-.3-.2-.5-.5-.8-.6-.3-.2-.5-.3-.8-.5-.3-.1-.6-.2-.8-.4-.3-.1-.6-.1-.9-.2l-.9-.1c-.3 0-.6.1-.9.1-.6.2-1.2.3-1.8.6-.6.2-1.2.6-1.8 1-.6.4-1.1.8-1.6 1.1-.4.4-.9.7-1.3 1.1-.4.3-.7.7-1 .9-.4.5-.8.8-.8.8zm55.7 8.1s.1-.5.3-1.2c.1-.4.2-.8.4-1.3s.5-1.1.8-1.7c.4-.6.8-1.2 1.3-1.9.6-.6 1.2-1.3 2-1.8.7-.6 1.7-1 2.7-1.3.5-.1 1.1-.3 1.6-.3.6 0 1.1 0 1.7.1.5.1 1.1.3 1.6.4.5.2 1 .5 1.5.8.9.6 1.6 1.3 2.2 2 .1.2.3.4.4.5l.3.6c.2.4.4.8.6 1.1.3.8.6 1.5.7 2.2.1.7.2 1.3.3 1.9.1.5 0 1 .1 1.4 0 .8-.1 1.2-.1 1.2s-.3-.4-.7-1c-.2-.3-.4-.7-.7-1.2-.3-.4-.6-.9-1-1.4l-1.2-1.5-.7-.7-.3-.4-.4-.3c-.3-.2-.5-.5-.8-.6-.3-.2-.5-.3-.8-.5-.3-.1-.6-.2-.8-.4-.3-.1-.6-.1-.9-.2l-.9-.1c-.3 0-.6.1-.9.1-.6.2-1.2.3-1.8.6-.6.2-1.2.6-1.8 1s-1.1.8-1.6 1.1c-.4.4-.9.7-1.3 1.1-.4.3-.7.7-1 .9-.4.5-.8.8-.8.8z" id="Ojos_2_"/>
    <path id="Gafas_2_" class="st16" d="M201.3 157.4c-5.1-2.6-10.2-4.4-18.2-4.2-7.9.2-12.5 3.9-13.8 3.8-1.3-.1-4.6-2.3-8.2-2.9-3.6-.6-7.4.6-8.7.3s-4.5-5.2-12-7.8-12.9-2.5-18.6-1.5c-5.7.9-8.9 2.8-13.8 2l-.9 5.6s3 .6 3.1 2.4c.1 1.8 0 10 3.2 15.6s7 9.6 14.6 11.1c8.3 1.6 14.4-.9 18-3.9 5-4.2 8-11.5 9-15 0 0-1.7-1.3-.7-3.2.8-1.5 2.6-1.6 6.2-1s5.2 1.2 5.5 2.9c.4 2.2-1.6 2.8-1.6 2.8-.1 3.6.5 11.4 4 17 2.5 3.9 7.6 8.3 15.9 9.2 7.6.9 12.5-1.8 17.2-6.1 4.8-4.4 7.2-12.2 7.8-13.9s3.7-1.3 3.7-1.3l.9-5.6c-5.1-.9-7.5-3.6-12.6-6.3zM147.2 173c-3.3 4.9-8.6 7.3-13.6 7.2-4.4 0-8.2-.2-13.3-4.1-4.8-3.7-7.2-9.6-7.1-16.1s4.7-11 8.8-12.6c4.7-1.8 13.6-1.2 18.9 1.3 5.4 2.4 8.9 6.8 9.5 10.2.8 3.3.1 9.2-3.2 14.1zm57.6 1.3c-1.9 6.2-5.9 11.1-11.7 13.2-6 2.2-9.7 1.2-13.9-.1-4.7-1.5-9.1-5.3-10.7-11-1.7-5.7-.5-11.5 1.1-14.5s6.3-6.2 12.2-6.8c5.8-.7 14.5 1.4 18.4 4.5 3.5 2.8 6.4 8.5 4.6 14.7z"/>
    <path class="st17" d="M169.8 187.6s-.3.5-1 1.3c-.3.4-.7.9-1.3 1.4-.5.5-1.1 1.1-1.8 1.6-.7.6-1.5 1.1-2.5 1.6-.9.5-1.9 1-3 1.3s-2.3.6-3.5.7c-1.2.1-2.5.1-3.7 0s-2.5-.4-3.6-.8c-1.2-.4-2.3-1-3.3-1.6s-1.9-1.4-2.6-2.1c-.8-.7-1.4-1.6-1.9-2.3-.5-.8-.9-1.5-1.2-2.2s-.5-1.3-.6-1.8c-.2-.5-.2-.9-.3-1.2 0-.3-.1-.4-.1-.4s.1.1.2.4c.1.2.4.6.7 1s.6.9 1.1 1.4c.4.5 1 1.1 1.5 1.7.6.6 1.3 1.2 2 1.7s1.6 1 2.5 1.5c.9.4 1.8.8 2.8 1.1s2 .5 3.1.6c1 .1 2.1.1 3.1.1s2.1-.2 3-.4c1-.2 1.9-.5 2.8-.8.4-.2.9-.3 1.3-.5s.8-.3 1.2-.5c.8-.4 1.4-.7 2-1.1.6-.4 1.1-.7 1.5-.9l1.6-.8z"/>
    <path class="st18" d="M340.4 318.9s-.4.1-1.1.3c-.4.1-.8.2-1.3.3-.5.1-1.1.3-1.7.5-1.3.4-2.7.9-4.3 1.5-1.6.6-3.2 1.4-4.8 2.4-1.6 1-3.1 2.1-4.3 3.4-1.2 1.3-2.3 2.7-3.2 4.3-.9 1.6-1.6 3.4-2.2 5.4-.1.5-.3 1-.4 1.6-.1.5-.2 1.1-.4 1.6l-.4 1.3c-.1.3-.2.7-.3 1l-.2.5v.1l-.1.2-.1.4-.6 1.5c-.1.2-.2.5-.3.7-.1.2-.2.5-.3.7l-.6 1.3c-.2.4-.4.9-.7 1.3l-.8 1.2c-.3.4-.5.8-.8 1.2l-.9 1.2c-.3.4-.6.8-.9 1.1-.3.4-.7.7-1 1.1-2.7 2.8-5.9 4.9-9.1 6.4-3.2 1.4-6.4 2.2-9.4 2.6s-5.7.3-8.2.1c-2.5-.3-4.7-.7-6.6-1.3-1.9-.6-3.5-1.2-4.8-1.8-.3-.2-.6-.3-.9-.4s-.5-.3-.8-.4c-.5-.3-.9-.5-1.2-.7-.7-.4-1-.7-1-.7s1.5-.5 4.1-1.4c2.5-.9 6.1-2 9.8-3.6 1.9-.8 3.8-1.7 5.7-2.7 1.9-1 3.6-2.2 5.2-3.4 1.5-1.3 2.8-2.6 3.9-4.1.1-.2.3-.4.4-.6s.2-.4.4-.6c.1-.2.2-.4.4-.6l.3-.6.3-.6.3-.7.3-.6c.1-.1.1-.2.1-.3 0-.1.1-.2.1-.3.1-.2.2-.4.2-.5l.1-.1v-.2l.2-.5c.1-.3.2-.7.3-1l.2-.5v-.1c0 .1.1-.4-.1.3v-.1l.1-.3c.3-.8.5-1.7.8-2.5s.7-1.7 1-2.5c1.5-3.3 3.5-6.4 6.1-9s5.6-4.6 8.7-5.9 6.1-1.8 8.8-1.9c2.7-.1 5.1.3 7.1.8s3.6 1.2 4.9 1.8c.3.2.6.3.9.5s.5.3.8.5c.5.3.9.6 1.2.8.8.3 1.1.6 1.1.6z"/>
    <path class="st19" d="M223.1 321.2L249 325c6.9 14.4 12.5 28.9 9.2 33.1-6 7.9-32.9 4.7-44.1.6 0 0 1.1-16.4 11.4-30.9.1 0-.8-2.7-2.4-6.6zm-27.6-47.1s3.3 18.6 10 16.6l9.7 4.1-8.2 6.2c-5.2 2.6-17.7 21.9-35.3 55.4l-12.7-1.9c-.1 0 37.8-57.6 36.5-80.4z"/>
    <path class="st20" d="M208.9 235.4s-1.7 8.4-8.5 13.3c-6.7 4.9-7.9 22.9-8.3 29.5-.4 6.6 10.6 25.7 20 36.7s13.4 41.1 30.6 48.3c0 0 18.2-30.5-5.9-69.8 0 0-12.9-42.9.8-55.8-.1.1-23.1-6.7-28.7-2.2z"/>
    <path class="st19" d="M267.1 197.9c0 .2.9 19.5-16.7 30.5-17.7 11.1 18.5 48.5 24.4 61 23.2 49.4 10.1 66 4 73.9-6 7.8-32.6 4.7-43.9.7-.1 0-.2-.1-.2-.2.1-1.5 1.2-11.7 6.6-22.7 3.1-6.2 3-13.5.1-19.8-1.1-2.2-2.3-4.6-3.7-6.9-4.4-7.2-14.8-7.4-19.3-.2-5.2 8.2-11.9 22.2-18.7 46.3 0 .1-.2.2-.3.2l-11.3-1.7c-.2 0-.3-.2-.2-.4 1.2-2.7 9.1-20.2 14.8-42.2 2-7.6 2.5-20.1.4-27.6-.8-2.8.9-5.5 3.3-16.2 3.6-16.8-6-30.5 4.9-40.5 0 0 .1-.1.2-.1l3.1-.3c11.1-1.1 21.2-7.1 27-16.6 3.5-5.8 5.2-12.5 1.1-18.8-10.1-15.4-31.3-15.1-42.4-11.3-.2.1-.4-.1-.3-.3 1.5-3.3 9.4-20.1 16.5-23.9 7.9-4.2 17.5-3.6 27.6-1s19.4 7.3 20.3 12.7c.9 5.3.3 16.8 2.7 25.4z"/>
    <path class="st21" d="M204.7 244.4l44.4 5.4s-.7-1.6-1.6-3.7l-1.3-4.9c-.6-1.7-1.7-2.1-3.5-2.4l-32.2-6c-.9-.3-1.7 1.6-2.6 3.5l-.7 1.5c-1.2 3-2.5 6.6-2.5 6.6z"/>
    <path class="st19" d="M250.5 228.4c-.5.3-.9.6-1.3 1l-7.3-1.1c.2-.1.3-.3.5-.4l-8.3 7.5-17.3-2.6c1.9-1.3 41.1-.2 28.3-35.3-5.2-14.2-34.3-16.2-45.2-12.3 0 0 8.8-20.2 16.7-24.5 7.9-4.2 17.5-3.6 27.6-1s19.4 7.3 20.3 12.7c.8 5.4.2 16.9 2.7 25.5-.1 0 .9 19.4-16.7 30.5z"/>
    <path class="st20" d="M228.2 364.3s1 2.5 5.4.8c0 0 1.8 4.9 10.5 2.1 0 0 .5 4.3 12.1 1.3 0 0 4.3-12-14.9-14.9-19.3-2.9-13.1 10.7-13.1 10.7zm-48.7-5.2s1 2.5 5.4.8c0 0 1.8 4.9 10.5 2.1 0 0 .5 4.3 12.1 1.3 0 0 5.6-15.8-13.7-18.6-19.2-3-14.3 14.4-14.3 14.4z"/>
    <path class="st20" d="M146.9 354.2s1 2.5 5.4.8c0 0 1.8 4.9 10.5 2.1 0 0 .5 4.3 12.1 1.3 0 0 5.4-15.8-13.8-18.7-19.2-2.8-14.2 14.5-14.2 14.5zm58.3 6.1s.7 1.8 3.8.6c0 0 1.3 3.4 7.5 1.5 0 0 .3 3.1 8.5.9 0 0 3-8.5-10.6-10.5-13.6-2.1-9.2 7.5-9.2 7.5z"/>
    <path class="st19" d="M263.6 160.1s-2.3 37 1.4 41.2c3.8 4.3 25.9-8.1 26.8-10 1-1.9-15.9-26.6-28.2-31.2zm-35.2-7.6c2.7.3-16.1 28.3-20.4 30-4.2 1.6-15.2-16.1-13.5-19.3 1.8-3.4 25.1-11.7 33.9-10.7z"/>
    <path class="st16" d="M250.2 193v-2.8s-.1-1.2-.2-1.8c-.1-.6-.2-1.3-.3-2l-.6-2.1c-.3-.7-.6-1.3-1-1.8l-.3-.3-.3-.3s-.2-.2-.3-.2l-.2-.1h-.1s.3.1.2.1l-.7-.2h-1.2c-.3 0-.7.1-1 .2-.3.1-.7.2-1 .3-1.4.5-2.7 1.3-3.7 2-.5.4-1 .7-1.4 1.1-.4.4-.8.7-1.1 1l-.7.7-.3.2v-.3s.1-.6.2-1 .3-.9.5-1.5c.3-.5.6-1.2 1-1.8s1-1.3 1.6-1.9c.6-.6 1.4-1.2 2.2-1.7.9-.5 1.9-1 3-1.2.3-.1.6-.1.9-.1.3 0 .6-.1 1 0 .4 0 .8.1 1.1.2l.7.2.2.1h.1l.1.1.2.1.4.3c.3.2.5.4.8.6.3.2.5.4.7.7.2.2.4.5.5.7.7 1 1 2 1.2 3s.2 1.9.2 2.8c0 .9-.2 1.7-.3 2.4-.2.7-.4 1.4-.6 1.9-.2.6-.5 1-.7 1.4s-.4.6-.6.8l-.2.2zm-30.4-12.3s0-.1-.1-.3c0-.2-.1-.5-.2-.8-.1-.3-.2-.7-.4-1.1-.2-.4-.4-.9-.6-1.3-.4-.9-1-2-1.7-2.9-.4-.4-.7-.8-1.1-1.1-.1-.1-.2-.1-.3-.2-.1 0-.2-.1-.3-.1s-.2-.1-.2-.1h-.2.2-1c-.1 0-.2 0-.3.1-.4.1-.9.4-1.4.7s-.9.7-1.3 1.1l-1.2 1.2s-.7.8-.9 1.1c-.3.4-.5.7-.7.9l-.6.9s0-.1-.1-.3c0-.2-.1-.5-.1-.8-.1-.7 0-1.8.4-3 .2-.6.4-1.2.8-1.9.4-.6.8-1.3 1.4-1.9.6-.6 1.3-1.2 2.2-1.6.2-.1.5-.2.7-.3.3-.1.5-.2.8-.2l.5-.1h1.4l.2.1.4.1c.3.1.5.2.8.3s.5.3.7.4c.2.1.4.3.6.5.8.7 1.3 1.4 1.6 2.2.4.8.6 1.5.8 2.2.1.7.2 1.4.2 2 0 1.3-.2 2.3-.5 2.9-.1.3-.3.6-.3.7-.1.5-.2.6-.2.6z"/>
    <path class="st20" d="M249 211.9c-2.1 13.8-18.1 22.9-35.8 20.3-17.7-2.6-29.2-17-27.1-30.8 2.1-13.8 16.8-21.9 34.6-19.3 17.6 2.6 30.3 16 28.3 29.8z"/>
    <path class="st16" d="M211.2 193.5c-.6 3.7-7.6 10.6-15.1 9.4-7.5-1.2-10.5-10-9.9-13.7s5-5.9 12.5-4.7 13.2 5.3 12.5 9z"/>
    <path class="st22" d="M190.5 216.7l20.3 8s-16.1 14.5-20.5 12.9c-4.7-1.6.2-20.9.2-20.9z"/>
    <path class="st23" d="M251.3 292.3s-20.1 15.3-17.4 21.4c2.6 6.2 18.3 8.7 21.9.3 3.6-8.4 6.5-23.6-4.5-21.7zm-78.2-9.6s17.5-6.8 29-12.1 35.7-12.4 40.3-11.2c4.6 1.2 11.5 6.2 11.8 8.4.3 2.1-7.6 4.9-7.6 4.9s-2.6 7.9-7.9 9.2c-4.1 1-16.9.2-27-4.2l-30.9 26.2s-10.9-17-7.7-21.2z"/>
    <path class="st4" d="M162.4 283.9c9-1.8 19.5-4.5 19.5-4.5L188 304s-13.7 10.2-31.6 12.4c-17.8 2.2-36.5-34.8-42.4-61s7.5-32.8 7.5-32.8 35.9.8 31 31.6c0 0-.7 7.5 2 14.6 1.6 4-9.6 4.3-5.3 5.2l5.3.2c1.7.4 6.2 10.1 7.9 9.7z"/>
  </g>
  <path class="st20" d="M77.9 164.9c-.8-4.6-5.1-7.6-9.7-6.9-3 .5-5.3 2.5-6.4 5.1-1.9-2.1-4.7-3.2-7.7-2.7-4.6.8-7.6 5.1-6.9 9.7 2.4 14.5 18.1 14 18.1 14s15.1-4.6 12.6-19.2zm230.7-36.4c.4-2.2-1.1-4.3-3.3-4.6-1.4-.2-2.8.3-3.7 1.3-.5-1.2-1.6-2.2-3.1-2.4-2.2-.4-4.3 1.1-4.6 3.3-1.1 6.9 6 9.1 6 9.1s7.6.3 8.7-6.7zm-43.7 8c-.9-3.1-4.1-5-7.2-4.1-2 .6-3.5 2.1-4.1 4-1.4-1.3-3.5-1.9-5.5-1.3-3.1.9-5 4.1-4.1 7.2 2.8 9.9 13.6 8.4 13.6 8.4s10.1-4.3 7.3-14.2zm20.9-78.9c-.6-1.6-2.3-2.3-3.9-1.7-1 .4-1.7 1.3-1.9 2.3-.8-.6-1.9-.8-2.9-.4-1.6.6-2.3 2.3-1.7 3.9 1.9 4.9 7.4 3.7 7.4 3.7s4.9-2.9 3-7.8zM49.1 84.4c-.3-2.2-2.3-3.7-4.5-3.4-1.4.2-2.6 1.1-3.1 2.4-.9-1-2.2-1.6-3.6-1.4-2.2.3-3.7 2.3-3.4 4.5.9 7 8.4 7 8.4 7s7.1-2.1 6.2-9.1zm59.8 177.3c.5-3.2-1.7-6.2-4.9-6.7-2.1-.3-4.1.5-5.4 2-.8-1.8-2.4-3.2-4.5-3.5-3.2-.5-6.2 1.7-6.7 4.9-1.6 10.2 9 13.3 9 13.3s10.9.2 12.5-10zm-4.7-186c-.6-1.6-2.3-2.3-3.9-1.7-1 .4-1.7 1.3-1.9 2.3-.8-.6-1.9-.8-2.9-.4-1.6.6-2.3 2.3-1.7 3.9 1.9 4.9 7.4 3.7 7.4 3.7s4.8-2.8 3-7.8z"/>
</svg>
