<svg id="Objects" xmlns="http://www.w3.org/2000/svg" viewBox="0 0 391 349">
  <style>
    .st0{fill:#1FA6E4;} .st1{fill:#39B54A;} .st2{fill:#EFB670;} .st3{opacity:0.5;fill:#EFB670;} .st4{fill:#FFD092;} .st5{fill:none;stroke:#3C2415;stroke-width:2;stroke-linecap:round;stroke-miterlimit:10;} .st6{fill:#FF4D4D;} .st7{fill:#FEB123;} .st8{fill:#3C2415;} .st9{display:none;fill:#F1F2F2;} .st10{display:none;opacity:0.2;fill:#005E55;} .st11{fill:#EF4136;} .st12{fill:#F77046;} .st13{fill:#BE1E2D;} .st14{fill:#7E5329;} .st15{fill:#5B2900;} .st16{fill:#FFF380;} .st17{fill:#602B00;}
  </style>
  <path class="st0" d="M314.8 212.8h25V349h-25zM51.1 143.3h25V349h-25zm126 41.8h25V349h-25z"/>
  <path class="st1" d="M120.4 196.2c-16.7 9.7-36 15.3-56.7 15.3-20.7 0-40.1-5.6-56.7-15.3l31.7-36.3 49.3-.2 32.4 36.5z"/>
  <path class="st2" d="M88 159.7s-22.8 17.8-24.3 17.8-25-17.7-25-17.7c4.1-.9 8.3-1.6 12.5-2.1V143h25v14.8c4 .4 7.9 1.1 11.8 1.9z"/>
  <path class="st3" d="M51.1 143h25v8.8h-25z"/>
  <circle class="st2" cx="12.1" cy="105.2" r="12.1"/>
  <circle class="st2" cx="115.2" cy="105.2" r="12.1"/>
  <path class="st4" d="M113.2 41v54.7c-.3 22.7-15.8 41.6-36.7 47.2-4.1 1.1-8.4 1.7-12.8 1.7s-8.7-.6-12.8-1.7c-16.2-4.3-29-16.6-34.2-32.3-1.6-4.9-2.5-10.1-2.5-15.5V41c0-6.3 5.1-11.3 11.3-11.3H102c6.1 0 11.2 5.1 11.2 11.3z"/>
  <path class="st5" d="M83.7 110.6c-2.5 6.7-12.4 7.5-19.4 7.5-7 0-16.3-.8-19.4-7.5"/>
  <path class="st6" d="M67.7 106.3h-6.6l3.3-15.6z"/>
  <path class="st4" d="M113.2 95.1v.6-1.3.7z"/>
  <path class="st7" d="M12.1 106.3s57-15.4 81.3-63.1c0 0-1.7 11.1 4.6 19.2 0 0-2-9.4 0-13.7 0 0 5.5 31.1 14.5 55.3 0 0 11.4-49.3.8-76.1l2-5.7-10.9 2-4.9-14-1.1 11.7s-12-20-38.6-19.2c-26.7.7-61.8 20-47.7 103.6z"/>
  <path class="st8" d="M40.3 99.3v-.2c0-.2-.1-.3-.1-.7v-1.1c.1-.4.2-.9.4-1.4.2-.5.5-1 .9-1.5s.9-1 1.4-1.4c.6-.4 1.2-.8 1.9-1 .7-.2 1.5-.3 2.2-.4.5 0 .6 0 1.1.1.4 0 .8.2 1.1.3.7.2 1.4.6 1.9 1 .6.4 1 .9 1.4 1.4.4.5.7 1 .9 1.5.2.5.3 1 .4 1.4.1.4.1.8 0 1.1 0 .3-.1.5-.1.7v.2c-.1.3-.3.5-.6.4-.2 0-.3-.2-.4-.4 0 0-.1-.3-.3-.7-.1-.2-.2-.5-.4-.8l-.6-.9c-.2-.3-.5-.6-.8-.9-.3-.3-.7-.5-1.1-.7-.4-.2-.8-.4-1.3-.5-.2 0-.5-.1-.6-.1-.1 0-.6 0-.7-.1-.5 0-.9.1-1.4.2-.4.1-.9.3-1.3.5s-.8.5-1.1.7c-.3.3-.6.6-.8.9l-.6.9c-.1.3-.3.5-.4.8-.1.2-.1.4-.2.6 0 .1-.1.2-.1.2-.1.3-.4.4-.6.3.1-.1-.1-.2-.1-.4zm34.8 0v-.2c0-.2-.1-.3-.1-.7v-1.1c.1-.4.2-.9.4-1.4.2-.5.5-1 .9-1.5s.9-1 1.4-1.4c.6-.4 1.2-.8 1.9-1 .7-.2 1.5-.3 2.2-.4.5 0 .6 0 1.1.1.4 0 .8.2 1.1.3.7.2 1.4.6 1.9 1 .6.4 1 .9 1.4 1.4.4.5.7 1 .9 1.5.2.5.3 1 .4 1.4.1.4.1.8 0 1.1 0 .3-.1.5-.1.7v.2c-.1.3-.3.5-.6.4-.2 0-.3-.2-.4-.4 0 0-.1-.3-.3-.7-.1-.2-.2-.5-.4-.8l-.6-.9c-.2-.3-.5-.6-.8-.9-.3-.3-.7-.5-1.1-.7-.4-.2-.8-.4-1.3-.5-.2 0-.5-.1-.6-.1-.1 0-.6 0-.7-.1-.5 0-.9.1-1.4.2-.4.1-.9.3-1.3.5s-.8.5-1.1.7c-.3.3-.6.6-.8.9l-.6.9c-.1.3-.3.5-.4.8-.1.2-.1.4-.2.6 0 .1-.1.2-.1.2-.1.3-.4.4-.6.3 0-.1-.1-.2-.1-.4z"/>
  <path class="st9" d="M176.2 98.9c0 34.1-15.2 64.7-39.2 85.4-19.7 17-45.3 27.2-73.4 27.2V-13.7c62.2 0 112.6 50.4 112.6 112.6z"/>
  <path class="st10" d="M461.8 102.9c0 34.1-15.2 64.7-39.2 85.4-19.7 17-45.3 27.2-73.4 27.2-28 0-53.7-10.3-73.4-27.2-24-20.6-39.2-51.2-39.2-85.4C236.6 40.7 287-9.7 349.2-9.7c62.2 0 112.6 50.4 112.6 112.6z"/>
  <path class="st11" d="M263 221c-19.7 17-45.3 27.2-73.4 27.2-28 0-53.7-10.3-73.4-27.2 10.6-9.1 22.9-16.3 36.4-21 .8-.3 1.7-.6 2.5-.8.4-.1.7-.2 1.1-.3.5-.2 1-.3 1.5-.5.5-.1 1-.3 1.4-.4.7-.2 1.5-.4 2.2-.6h.1c.7-.2 1.4-.3 2-.5.1 0 .2-.1.3-.1.7-.2 1.4-.3 2.1-.5h.1c.7-.1 1.4-.3 2.1-.4.7-.1 1.5-.3 2.2-.4.1 0 .2 0 .3-.1.6-.1 1.3-.2 1.9-.3.6-.1 1.1-.2 1.7-.2.4-.1.7-.1 1.1-.1.5-.1 1.1-.1 1.6-.2 4.1-.5 8.3-.7 12.5-.7 4.2 0 8.4.2 12.5.7.5.1 1.1.1 1.6.2.4 0 .7.1 1.1.1.6.1 1.2.2 1.7.2.7.1 1.3.2 1.9.3.1 0 .2 0 .3.1.7.1 1.5.3 2.2.4.7.1 1.4.3 2.1.4h.1c.7.2 1.4.3 2.1.5.1 0 .2 0 .3.1.7.2 1.4.3 2 .5h.1c.7.2 1.5.4 2.2.6.5.1 1 .3 1.4.4.5.1 1 .3 1.5.5.4.1.7.2 1.1.3.9.3 1.7.6 2.5.8 14.1 4.7 26.4 11.9 37 21z"/>
  <path class="st2" d="M207.2 194.9l-17.6 13.8-17.6-13.8c1.1 0 2.6-.1 5.1-.4v-14.8h25v14.8c2.5.3 4 .4 5.1.4z"/>
  <path class="st3" d="M177.1 179.7h25v8.8h-25z"/>
  <path class="st4" d="M239.1 77.8v90.6c0 6.3-5.1 11.3-11.3 11.3h-76.5c-6.3 0-11.3-5.1-11.3-11.3V77.8c0-6.3 5.1-11.3 11.3-11.3h76.5c6.3 0 11.3 5 11.3 11.3z"/>
  <path class="st5" d="M214.1 142.6c-3.2 8.5-15.7 9.5-24.6 9.5-8.9 0-20.6-1-24.6-9.5"/>
  <path class="st2" d="M253.2 142c0 6.7-5.3 12.1-11.8 12.1-.8 0-1.5-.1-2.3-.2v-23.8c.7-.1 1.5-.2 2.3-.2 6.5 0 11.8 5.4 11.8 12.1zM140 130.1v23.8c-.7.1-1.5.2-2.3.2-6.5 0-11.8-5.4-11.8-12.1 0-6.7 5.3-12.1 11.8-12.1.8 0 1.6 0 2.3.2z"/>
  <path class="st6" d="M193.6 132c0 4.6-1.8 6.2-4 6.2s-4-1.6-4-6.2 1.8-10.6 4-10.6 4 6 4 10.6z"/>
  <path class="st12" d="M236 61.3s-9.6-10.8-27-14.8c4.4 4.8 5.1 9 5.1 9-34.1-12.4-54.9-2.1-58.1-.3-.2.1-.3.2-.3.2s-.1 0-.1.1c-17 10.2-27.6 29.8-15.6 67.6v45.3c0 6.3 5.1 11.3 11.3 11.3h76.5c6.3 0 11.3-5.1 11.3-11.3V120s13.4-40.6-3.1-58.7zm-26.4 106.1c-20.1 0-15.3-8.4-15.3-8.4h-9.4s4.8 8.4-15.3 8.4c-22.5 0-24.9-32-24.9-45.1 5.6-1.1 8.8-3.6 21.3-16.1 10.3-10.2 34.9-7.5 48.1-22 0 0 5.9 25.1 20.3 35.6.3 10.9-.7 47.6-24.8 47.6z"/>
  <path class="st13" d="M159.4 200l4.4-11.5 25.8 20.2-15.1 12.3z"/>
  <path class="st13" d="M219.7 200l-4.3-11.5-25.8 20.2 15.1 12.3z"/>
  <path class="st12" d="M188.8 147.4h-14s2.7-3.8 14-3.3v3.3zm1.5 0h14s-2.7-3.8-14-3.3v3.3z"/>
  <path class="st14" d="M155.7 55.4l-.1.1s.1 0 .1-.1z"/>
  <ellipse class="st8" cx="172.1" cy="128.3" rx="3.5" ry="4.4"/>
  <ellipse class="st8" cx="207.1" cy="128.3" rx="3.5" ry="4.4"/>
  <path class="st9" d="M457.7 98.9c0 34.1-15.2 64.7-39.2 85.4-19.7 17-45.3 27.2-73.4 27.2V-13.7c62.2 0 112.6 50.4 112.6 112.6z"/>
  <path class="st15" d="M378.2 152.3H275.8l-3 71.9h108.4z"/>
  <path class="st16" d="M384 265.9c-16.7 9.7-36 15.3-56.7 15.3-20.7 0-40.1-5.6-56.7-15.3l14.7-28.8 17-7.5 49.3-.2 16.2 6.9 16.2 29.6z"/>
  <path class="st3" d="M327.3 247.3s-14.7 10.8-22.9-3.2c-4.9-8.5-2.2-14.5-2.2-14.5l25.1 17.7z"/>
  <path class="st3" d="M327 247.3s14.7 10.8 22.9-3.2c4.9-8.5 2.2-14.5 2.2-14.5L327 247.3z"/>
  <path class="st2" d="M351.7 229.5s-22.8 17.8-24.3 17.8-25-17.7-25-17.7c4.1-.9 8.3-1.6 12.5-2.1v-14.8h25v14.8c4 .5 7.9 1.1 11.8 2z"/>
  <path class="st3" d="M314.8 212.8h25v8.8h-25z"/>
  <circle class="st2" cx="275.8" cy="175" r="12.1"/>
  <circle class="st2" cx="378.9" cy="175" r="12.1"/>
  <path class="st4" d="M376.9 110.8v54.7c-.3 22.7-15.8 41.6-36.7 47.2-4.1 1.1-8.4 1.7-12.8 1.7s-8.7-.6-12.8-1.7c-16.2-4.3-29-16.6-34.2-32.3-1.6-4.9-2.5-10.1-2.5-15.5v-54.1c0-6.3 5.1-11.3 11.3-11.3h76.5c6.1 0 11.2 5.1 11.2 11.3z"/>
  <path class="st6" d="M324.7 162.9h5.4V175h-5.4z"/>
  <path class="st17" d="M374.7 181.3s-1.6-7-4.5-16.8c-3.1-10.4-5.5-24-2.1-35.5 0 0-12.9 1.7-16.1-14.5-27.1 27-65 14.5-65 14.5 3.4 11.5 1 25.2-2.2 35.7-2.9 9.7-4.4 16.6-4.4 16.6-1.6-4.9-7.5-52.3-7.5-52.3v-.3c.1-19.9 10.9-37.3 26.9-46.7 0-.3.1-.5.2-.8 8.1-4.7 17.4-7.4 27.4-7.4s19.4 2.7 27.5 7.4c.1.3.1.5.2.8 16 9.4 26.8 26.8 26.9 46.7-.1.1-5.7 47.7-7.3 52.6z"/>
  <path class="st5" d="M346.5 178.3c-2.5 6.7-12.2 7.4-19.2 7.4-6.9 0-16-.7-19.2-7.4"/>
  <path class="st4" d="M376.9 164.9v.6-1.3.7z"/>
  <path class="st8" d="M304 169.1v-.2c0-.2-.1-.3-.1-.7v-1.1c.1-.4.2-.9.4-1.4.2-.5.5-1 .9-1.5s.9-1 1.4-1.4c.6-.4 1.2-.8 1.9-1 .4-.1.7-.2 1.1-.3.2 0 .4-.1.6-.1h.6c.5 0 1.5.1 2.1.4.7.2 1.4.6 1.9 1 .6.4 1 .9 1.4 1.4.4.5.7 1 .9 1.5.2.5.3 1 .4 1.4.1.4.1.8 0 1.1 0 .3-.1.5-.1.7v.2c-.1.3-.3.5-.6.4-.2 0-.3-.2-.4-.4 0 0-.1-.3-.3-.7-.1-.2-.2-.5-.4-.8l-.6-.9c-.2-.3-.5-.6-.8-.9-.3-.3-.7-.5-1.1-.7-.4-.2-.8-.4-1.3-.5-.5-.1-.7-.2-1.4-.2h.1-.6c-.2 0-.5.1-.7.1-.4.1-.9.3-1.3.5s-.8.5-1.1.7c-.3.3-.6.6-.8.9l-.6.9c-.1.3-.3.5-.4.8-.1.2-.1.4-.2.6 0 .1-.1.2-.1.2-.1.3-.4.4-.6.3-.1 0-.2-.1-.2-.3zm34.7 0v-.2c0-.2-.1-.3-.1-.7v-1.1c.1-.4.2-.9.4-1.4.2-.5.5-1 .9-1.5s.9-1 1.4-1.4c.6-.4 1.2-.8 1.9-1 .7-.2 1.5-.3 2.2-.4.5 0 .6 0 1.1.1.4 0 .8.2 1.1.3.7.2 1.4.6 1.9 1 .6.4 1 .9 1.4 1.4.4.5.7 1 .9 1.5.2.5.3 1 .4 1.4.1.4.1.8 0 1.1 0 .3-.1.5-.1.7v.2c-.1.3-.3.5-.6.4-.2 0-.3-.2-.4-.4 0 0-.1-.3-.3-.7-.1-.2-.2-.5-.4-.8l-.6-.9c-.2-.3-.5-.6-.8-.9-.3-.3-.7-.5-1.1-.7-.4-.2-.8-.4-1.3-.5-.2 0-.5-.1-.6-.1-.1 0-.6 0-.7-.1-.5 0-.9.1-1.4.2-.4.1-.9.3-1.3.5s-.8.5-1.1.7c-.3.3-.6.6-.8.9l-.6.9c-.1.3-.3.5-.4.8-.1.2-.1.4-.2.6 0 .1-.1.2-.1.2-.1.3-.4.4-.6.3.1-.1 0-.2-.1-.4z"/>
</svg>
